<?xml version="1.0" encoding="UTF-8"?>
<svg version="1.1" xmlns="http://www.w3.org/2000/svg" width="71" height="57">
<path d="M0 0 C23.43 0 46.86 0 71 0 C71 18.81 71 37.62 71 57 C47.57 57 24.14 57 0 57 C0 38.19 0 19.38 0 0 Z " fill="#48639D" transform="translate(0,0)"/>
<path d="M0 0 C1.87372098 0.91406438 3.71254203 1.90163033 5.51953125 2.94140625 C7.0519043 3.81635742 7.0519043 3.81635742 8.61523438 4.70898438 C10.19788086 5.62647461 10.19788086 5.62647461 11.8125 6.5625 C12.88693359 7.17802734 13.96136719 7.79355469 15.06835938 8.42773438 C17.71587518 9.94564344 20.35951856 11.46989764 23 13 C23 14.32 23 15.64 23 17 C21.68 17 20.36 17 19 17 C19 18.32 19 19.64 19 21 C4.15 21 -10.7 21 -26 21 C-26 19.68 -26 18.36 -26 17 C-27.32 17 -28.64 17 -30 17 C-29.82324219 15.21801758 -29.82324219 15.21801758 -29 13 C-25.36073737 10.14506121 -21.25832406 7.98625529 -17.25 5.6875 C-16.15171875 5.02943359 -15.0534375 4.37136719 -13.921875 3.69335938 C-12.32859375 2.76813477 -12.32859375 2.76813477 -10.703125 1.82421875 C-9.73020508 1.25791748 -8.75728516 0.69161621 -7.75488281 0.1081543 C-4.50891366 -1.19753996 -3.27400491 -1.1319134 0 0 Z " fill="#4D68A1" transform="translate(39,8)"/>
<path d="M0 0 C1.32 0 2.64 0 4 0 C4 3.96 4 7.92 4 12 C7.63 12 11.26 12 15 12 C15 8.04 15 4.08 15 0 C16.32 0 17.64 0 19 0 C19 3.96 19 7.92 19 12 C22.63 12 26.26 12 30 12 C30 8.04 30 4.08 30 0 C31.32 0 32.64 0 34 0 C34 3.96 34 7.92 34 12 C35.65 12 37.3 12 39 12 C39.495 13.98 39.495 13.98 40 16 C24.49 16 8.98 16 -7 16 C-6.67 14.68 -6.34 13.36 -6 12 C-4.02 12 -2.04 12 0 12 C0 8.04 0 4.08 0 0 Z " fill="#EEF0F5" transform="translate(19,31)"/>
<path d="M0 0 C1.87372098 0.91406438 3.71254203 1.90163033 5.51953125 2.94140625 C7.0519043 3.81635742 7.0519043 3.81635742 8.61523438 4.70898438 C10.19788086 5.62647461 10.19788086 5.62647461 11.8125 6.5625 C12.88693359 7.17802734 13.96136719 7.79355469 15.06835938 8.42773438 C17.71587518 9.94564344 20.35951856 11.46989764 23 13 C23 14.32 23 15.64 23 17 C17.75776367 16.49033813 13.88004083 13.75936452 9.5 11.0625 C8.01241242 10.15427512 6.52287658 9.24923231 5.03125 8.34765625 C4.37705078 7.94554932 3.72285156 7.54344238 3.04882812 7.12915039 C-0.34484696 5.25873939 -0.34484696 5.25873939 -4 4 C-6.74024581 4.9114366 -6.74024581 4.9114366 -9.4140625 6.6484375 C-10.42210938 7.24140625 -11.43015625 7.834375 -12.46875 8.4453125 C-13.5103125 9.08210938 -14.551875 9.71890625 -15.625 10.375 C-17.69730255 11.6173632 -19.77268744 12.85460381 -21.8515625 14.0859375 C-22.76760254 14.6432959 -23.68364258 15.2006543 -24.62744141 15.77490234 C-27 17 -27 17 -30 17 C-29.82324219 15.21801758 -29.82324219 15.21801758 -29 13 C-25.36073737 10.14506121 -21.25832406 7.98625529 -17.25 5.6875 C-16.15171875 5.02943359 -15.0534375 4.37136719 -13.921875 3.69335938 C-12.32859375 2.76813477 -12.32859375 2.76813477 -10.703125 1.82421875 C-9.73020508 1.25791748 -8.75728516 0.69161621 -7.75488281 0.1081543 C-4.50891366 -1.19753996 -3.27400491 -1.1319134 0 0 Z " fill="#EEF1F6" transform="translate(39,8)"/>
<path d="M0 0 C17.16 0 34.32 0 52 0 C52 1.32 52 2.64 52 4 C34.84 4 17.68 4 0 4 C0 2.68 0 1.36 0 0 Z " fill="#EDEFF5" transform="translate(10,50)"/>
<path d="M0 0 C14.52 0 29.04 0 44 0 C44 1.32 44 2.64 44 4 C29.48 4 14.96 4 0 4 C0 2.68 0 1.36 0 0 Z " fill="#EDEFF5" transform="translate(14,25)"/>
<path d="M0 0 C2.78634234 1.50189415 5.46742045 3.0973514 8 5 C8 5.33 8 5.66 8 6 C4.4179079 6.2499134 2.52125745 6.3305535 -0.5625 4.375 C-1.366875 3.92125 -2.17125 3.4675 -3 3 C-5.7004039 3.64663567 -5.7004039 3.64663567 -8 5 C-10.70879335 6.35439668 -13.00933268 6.06501451 -16 6 C-11.74018726 0.9884556 -6.48080738 -2.24844338 0 0 Z " fill="#E8ECF3" transform="translate(40,16)"/>
<path d="M0 0 C1.11375 0.7425 1.11375 0.7425 2.25 1.5 C3.178125 2.03625 4.10625 2.5725 5.0625 3.125 C5.784375 3.57875 6.50625 4.0325 7.25 4.5 C6.92 5.49 6.59 6.48 6.25 7.5 C5.38375 6.984375 4.5175 6.46875 3.625 5.9375 C-0.32322061 4.25585048 -1.68513332 4.28054 -5.75 5.5 C-8.47854666 6.72586879 -11.12465747 8.06738923 -13.75 9.5 C-13.14897797 6.49488987 -12.21646711 4.86053633 -9.7890625 2.984375 C-3.73135081 -0.67842742 -3.73135081 -0.67842742 0 0 Z " fill="#5871A7" transform="translate(37.75,11.5)"/>
<path d="M0 0 C0.66 0.33 1.32 0.66 2 1 C1 4 1 4 -1 5 C-2.99960012 5.039992 -5.00047242 5.04346799 -7 5 C-4.88437775 2.67281553 -2.94982021 1.14186589 0 0 Z " fill="#DFE3EE" transform="translate(31,17)"/>
</svg>
