<?xml version="1.0" encoding="UTF-8"?>
<svg version="1.1" xmlns="http://www.w3.org/2000/svg" width="71" height="57">
<path d="M0 0 C5.11223889 2.0829705 9.7532464 4.8660279 14.50878906 7.65185547 C15.53101563 8.22935547 16.55324219 8.80685547 17.60644531 9.40185547 C18.57195313 9.96646484 19.53746094 10.53107422 20.53222656 11.11279297 C21.41571777 11.62374512 22.29920898 12.13469727 23.20947266 12.66113281 C23.84449707 13.19432129 24.47952148 13.72750977 25.13378906 14.27685547 C25.13378906 15.59685547 25.13378906 16.91685547 25.13378906 18.27685547 C24.17472656 18.70998047 24.17472656 18.70998047 23.19628906 19.15185547 C20.98172827 20.10508998 20.98172827 20.10508998 20.13378906 22.27685547 C2.80878906 22.77185547 2.80878906 22.77185547 -14.86621094 23.27685547 C-14.53621094 27.23685547 -14.20621094 31.19685547 -13.86621094 35.27685547 C-10.89621094 35.60685547 -7.92621094 35.93685547 -4.86621094 36.27685547 C-4.86621094 32.31685547 -4.86621094 28.35685547 -4.86621094 24.27685547 C-3.54621094 23.94685547 -2.22621094 23.61685547 -0.86621094 23.27685547 C0.87335565 25.01642205 0.50569292 27.47051767 0.69628906 29.83935547 C0.82197266 31.35722656 0.82197266 31.35722656 0.95019531 32.90576172 C1.01078125 33.68822266 1.07136719 34.47068359 1.13378906 35.27685547 C4.10378906 35.60685547 7.07378906 35.93685547 10.13378906 36.27685547 C10.13378906 32.31685547 10.13378906 28.35685547 10.13378906 24.27685547 C11.45378906 23.94685547 12.77378906 23.61685547 14.13378906 23.27685547 C15.87335565 25.01642205 15.50569292 27.47051767 15.69628906 29.83935547 C15.78007813 30.85126953 15.86386719 31.86318359 15.95019531 32.90576172 C16.01078125 33.68822266 16.07136719 34.47068359 16.13378906 35.27685547 C18.11378906 35.93685547 20.09378906 36.59685547 22.13378906 37.27685547 C21.80378906 38.59685547 21.47378906 39.91685547 21.13378906 41.27685547 C5.95378906 41.27685547 -9.22621094 41.27685547 -24.86621094 41.27685547 C-25.19621094 39.62685547 -25.52621094 37.97685547 -25.86621094 36.27685547 C-23.88621094 36.27685547 -21.90621094 36.27685547 -19.86621094 36.27685547 C-19.86621094 32.31685547 -19.86621094 28.35685547 -19.86621094 24.27685547 C-22.34121094 23.28685547 -22.34121094 23.28685547 -24.86621094 22.27685547 C-24.86621094 20.95685547 -24.86621094 19.63685547 -24.86621094 18.27685547 C-26.51621094 18.27685547 -28.16621094 18.27685547 -29.86621094 18.27685547 C-29.50976761 15.65689234 -29.21881261 14.55956769 -27.11962891 12.87646484 C-26.37342285 12.46203125 -25.6272168 12.04759766 -24.85839844 11.62060547 C-24.03597656 11.15525391 -23.21355469 10.68990234 -22.36621094 10.21044922 C-21.49996094 9.73736328 -20.63371094 9.26427734 -19.74121094 8.77685547 C-18.89816406 8.30376953 -18.05511719 7.83068359 -17.18652344 7.34326172 C-15.52541564 6.41211278 -13.85846818 5.49129664 -12.18554688 4.58154297 C-9.89289905 3.32901841 -9.89289905 3.32901841 -7.8984375 1.97216797 C-3.53332924 -0.89145836 -3.53332924 -0.89145836 0 0 Z M-7.80761719 7.39404297 C-8.93006836 8.05726562 -8.93006836 8.05726562 -10.07519531 8.73388672 C-10.85185547 9.20181641 -11.62851562 9.66974609 -12.42871094 10.15185547 C-13.59950195 10.84214844 -13.59950195 10.84214844 -14.79394531 11.54638672 C-19.08802174 14.06997478 -19.08802174 14.06997478 -22.86621094 17.27685547 C-18.06676545 18.25720988 -13.49397463 18.3349842 -8.62402344 18.15576172 C-7.85565155 18.13215073 -7.08727966 18.10853973 -6.29562378 18.08421326 C-3.86060533 18.00812571 -1.42595006 17.92386827 1.00878906 17.83935547 C2.66762593 17.78607967 4.3264801 17.73333972 5.98535156 17.68115234 C10.03505723 17.55258575 14.08445763 17.41669534 18.13378906 17.27685547 C14.24537903 14.10064193 10.3580927 11.49909122 6.00878906 9.02685547 C5.38875 8.66333984 4.76871094 8.29982422 4.12988281 7.92529297 C-0.70912159 5.15717432 -3.00776938 4.54252504 -7.80761719 7.39404297 Z " fill="#CCD5E7" transform="translate(37.8662109375,6.72314453125)"/>
<path d="M0 0 C1.25226631 -0.00472824 1.25226631 -0.00472824 2.52983093 -0.009552 C3.42982315 -0.00752777 4.32981537 -0.00550354 5.25708008 -0.00341797 C6.65389763 -0.00485306 6.65389763 -0.00485306 8.07893372 -0.00631714 C10.05180936 -0.00699794 12.02468725 -0.00515059 13.99755859 -0.00097656 C16.99752943 0.00434296 19.99734847 -0.00090929 22.99731445 -0.00732422 C24.91723666 -0.00666283 26.83715876 -0.00538041 28.75708008 -0.00341797 C29.64695114 -0.0054422 30.5368222 -0.00746643 31.45365906 -0.009552 C36.67125407 0.00978329 41.67492513 0.37588653 46.83911133 1.12939453 C46.83911133 2.44939453 46.83911133 3.76939453 46.83911133 5.12939453 C40.954162 5.97570951 35.24155263 6.28946111 29.30004883 6.29736328 C28.41556061 6.30069168 27.53107239 6.30402008 26.61978149 6.30744934 C24.76255814 6.31248161 22.90532586 6.31485882 21.0480957 6.31469727 C18.21526274 6.31689364 15.3828136 6.33511554 12.55004883 6.35400391 C10.73755015 6.35693669 8.92504964 6.35892225 7.11254883 6.35986328 C6.27178802 6.3670488 5.43102722 6.37423431 4.56478882 6.38163757 C-0.07775486 6.36366146 -3.79179456 5.90849812 -8.16088867 4.12939453 C-7.83088867 3.13939453 -7.50088867 2.14939453 -7.16088867 1.12939453 C-4.42223946 0.21651146 -2.81779543 0.003058 0 0 Z " fill="#BAC1E0" transform="translate(16.160888671875,48.87060546875)"/>
<path d="M0 0 C0.99 0 1.98 0 3 0 C3.33 3.63 3.66 7.26 4 11 C7.63 11.33 11.26 11.66 15 12 C15 8.04 15 4.08 15 0 C15.99 0 16.98 0 18 0 C18.33 3.96 18.66 7.92 19 12 C18.01 12 17.02 12 16 12 C16 12.66 16 13.32 16 14 C13.17588235 14.94137255 11.47081968 15.11725382 8.55078125 15.09765625 C7.70322266 15.09443359 6.85566406 15.09121094 5.98242188 15.08789062 C5.10134766 15.07951172 4.22027344 15.07113281 3.3125 15.0625 C2.41982422 15.05798828 1.52714844 15.05347656 0.60742188 15.04882812 C-1.59511987 15.03704983 -3.79752599 15.02060164 -6 15 C-6 14.01 -6 13.02 -6 12 C-4.02 12 -2.04 12 0 12 C0 8.04 0 4.08 0 0 Z " fill="#F5FAFE" transform="translate(19,32)"/>
<path d="M0 0 C1.66611905 -0.042721 3.33382885 -0.04063832 5 0 C6.81115956 1.81115956 6.38199448 4.61278227 6.5625 7.0625 C6.64628906 8.16722656 6.73007812 9.27195312 6.81640625 10.41015625 C6.87699219 11.26480469 6.93757813 12.11945312 7 13 C9.97 13.33 12.94 13.66 16 14 C16 10.04 16 6.08 16 2 C17.32 1.67 18.64 1.34 20 1 C21.73956658 2.73956658 21.37190386 5.1936622 21.5625 7.5625 C21.68818359 9.08037109 21.68818359 9.08037109 21.81640625 10.62890625 C21.87699219 11.41136719 21.93757813 12.19382812 22 13 C24.97 13.33 27.94 13.66 31 14 C31 10.04 31 6.08 31 2 C31.66 1.67 32.32 1.34 33 1 C32.67 5.62 32.34 10.24 32 15 C23.50390625 15.09765625 23.50390625 15.09765625 21 15 C20 14 20 14 19.90234375 11.49609375 C19.91974609 9.98208984 19.91974609 9.98208984 19.9375 8.4375 C19.94652344 7.42558594 19.95554687 6.41367187 19.96484375 5.37109375 C19.97644531 4.58863281 19.98804687 3.80617187 20 3 C19.01 3 18.02 3 17 3 C17 6.96 17 10.92 17 15 C8.50390625 15.09765625 8.50390625 15.09765625 6 15 C5 14 5 14 4.90234375 11.49609375 C4.91394531 10.48675781 4.92554688 9.47742188 4.9375 8.4375 C4.94652344 7.42558594 4.95554687 6.41367187 4.96484375 5.37109375 C4.97644531 4.58863281 4.98804688 3.80617187 5 3 C4.01 3 3.02 3 2 3 C2 6.96 2 10.92 2 15 C0.02 15 -1.96 15 -4 15 C-4.33 15.99 -4.66 16.98 -5 18 C-5 16.68 -5 15.36 -5 14 C-3.02 14 -1.04 14 1 14 C1.02694851 12.04174127 1.04637218 10.08337774 1.0625 8.125 C1.07410156 7.03445312 1.08570313 5.94390625 1.09765625 4.8203125 C1.19744303 2.04822454 1.19744303 2.04822454 0 0 Z " fill="#98A3CC" transform="translate(17,29)"/>
<path d="M0 0 C3.10397847 1.86443591 6.07144661 3.87191787 9 6 C8.01 6.66 7.02 7.32 6 8 C2.8556114 7.25678088 -0.13414023 6.29686621 -3.1875 5.25 C-5.06605475 4.81343157 -5.06605475 4.81343157 -6.8125 5.9375 C-9.89397134 7.43421465 -12.62564522 7.12978288 -16 7 C-14.5905938 2.77178141 -12.16897191 1.95280198 -8.33203125 -0.03515625 C-4.95769072 -1.43124019 -3.4096445 -1.34965095 0 0 Z " fill="#B5C2D7" transform="translate(40,15)"/>
<path d="M0 0 C4.30764815 1.56641751 8.06171464 3.68336156 12 6 C12 7.32 12 8.64 12 10 C-1.2 10 -14.4 10 -28 10 C-28 9.67 -28 9.34 -28 9 C-12.655 8.505 -12.655 8.505 3 8 C1.35 6.68 -0.3 5.36 -2 4 C-1.01 3.67 -0.02 3.34 1 3 C0.67 2.01 0.34 1.02 0 0 Z " fill="#9BA7C3" transform="translate(51,15)"/>
<path d="M0 0 C4.21832482 -0.32565165 6.58075013 0.52126748 10.1875 2.6875 C11.04730469 3.18636719 11.90710938 3.68523438 12.79296875 4.19921875 C15.33263258 6.27140464 16.05525059 7.9018553 17 11 C11.24406487 11.90883186 7.70506569 9.39512861 2.9765625 6.5078125 C2.32429688 6.01023437 1.67203125 5.51265625 1 5 C1 4.34 1 3.68 1 3 C0.34 3 -0.32 3 -1 3 C-0.67 2.01 -0.34 1.02 0 0 Z " fill="#C9D1E5" transform="translate(36,8)"/>
<path d="M0 0 C0.7734375 0.61875 0.7734375 0.61875 1.5625 1.25 C0.5725 1.58 -0.4175 1.91 -1.4375 2.25 C-1.7675 2.91 -2.0975 3.57 -2.4375 4.25 C-1.7775 4.58 -1.1175 4.91 -0.4375 5.25 C-5.3875 7.725 -5.3875 7.725 -10.4375 10.25 C-10.7675 9.26 -11.0975 8.27 -11.4375 7.25 C-10.1175 6.26 -8.7975 5.27 -7.4375 4.25 C-8.0975 3.92 -8.7575 3.59 -9.4375 3.25 C-3.0375 -0.93461538 -3.0375 -0.93461538 0 0 Z " fill="#BDC7E1" transform="translate(37.4375,6.75)"/>
<path d="M0 0 C-0.93103324 2.32758311 -1.65382128 3.74357132 -3.6875 5.25 C-6.83545718 6.27095909 -9.71543368 6.12632947 -13 6 C-12 3 -12 3 -9.3125 1.3125 C-5.91018714 -0.03558623 -3.61672729 -0.25833766 0 0 Z " fill="#C0CCE1" transform="translate(37,16)"/>
<path d="M0 0 C-0.33 0.99 -0.66 1.98 -1 3 C-1.66 3 -2.32 3 -3 3 C-3 3.99 -3 4.98 -3 6 C-4.8125 7.0625 -4.8125 7.0625 -7 8 C-7.99 7.67 -8.98 7.34 -10 7 C-9.8125 5.1875 -9.8125 5.1875 -9 3 C-5.65188866 0.46629412 -4.29875783 0 0 0 Z " fill="#DCE3EE" transform="translate(30,11)"/>
<path d="M0 0 C0.66 0.33 1.32 0.66 2 1 C2 4.63 2 8.26 2 12 C1.01 12.33 0.02 12.66 -1 13 C-1.02686553 11.02090602 -1.04633375 9.04171029 -1.0625 7.0625 C-1.07410156 5.96035156 -1.08570313 4.85820313 -1.09765625 3.72265625 C-1 1 -1 1 0 0 Z " fill="#F1F8FE" transform="translate(50,31)"/>
<path d="M0 0 C2.9375 0.8125 2.9375 0.8125 6 2 C6.33 2.99 6.66 3.98 7 5 C5.02 5 3.04 5 1 5 C0.34 3.68 -0.32 2.36 -1 1 C-0.67 0.67 -0.34 0.34 0 0 Z " fill="#E3E9F0" transform="translate(46,14)"/>
<path d="M0 0 C0 0.66 0 1.32 0 2 C0.99 2.33 1.98 2.66 3 3 C1.68 3.99 0.36 4.98 -1 6 C-1.66 5.67 -2.32 5.34 -3 5 C-2.67 4.01 -2.34 3.02 -2 2 C-2.66 1.67 -3.32 1.34 -4 1 C-2 0 -2 0 0 0 Z " fill="#C9D3E6" transform="translate(20,16)"/>
<path d="M0 0 C1.98 0 3.96 0 6 0 C6 0.99 6 1.98 6 3 C4.02 3 2.04 3 0 3 C0 2.01 0 1.02 0 0 Z " fill="#DEE9F4" transform="translate(54,44)"/>
</svg>
