<?xml version="1.0" encoding="UTF-8"?>
<!DOCTYPE svg PUBLIC "-//W3C//DTD SVG 1.1//EN" "http://www.w3.org/Graphics/SVG/1.1/DTD/svg11.dtd">
<svg xmlns="http://www.w3.org/2000/svg" version="1.1" width="40px" height="40px" style="shape-rendering:geometricPrecision; text-rendering:geometricPrecision; image-rendering:optimizeQuality; fill-rule:evenodd; clip-rule:evenodd" xmlns:xlink="http://www.w3.org/1999/xlink">
<g><path style="opacity:1" fill="#65798e" d="M 0.5,3.5 C 10.8333,3.5 21.1667,3.5 31.5,3.5C 31.5,6.5 31.5,9.5 31.5,12.5C 33.8333,12.5 36.1667,12.5 38.5,12.5C 38.5,20.1667 38.5,27.8333 38.5,35.5C 28.1667,35.5 17.8333,35.5 7.5,35.5C 7.5,32.5 7.5,29.5 7.5,26.5C 5.16667,26.5 2.83333,26.5 0.5,26.5C 0.5,18.8333 0.5,11.1667 0.5,3.5 Z"/></g>
<g><path style="opacity:1" fill="#d8f2fe" d="M 1.5,4.5 C 11.1667,4.5 20.8333,4.5 30.5,4.5C 30.5,7.16667 30.5,9.83333 30.5,12.5C 22.8333,12.5 15.1667,12.5 7.5,12.5C 7.5,15.8333 7.5,19.1667 7.5,22.5C 5.5,22.5 3.5,22.5 1.5,22.5C 1.5,16.5 1.5,10.5 1.5,4.5 Z"/></g>
<g><path style="opacity:1" fill="#d8f2fe" d="M 8.5,13.5 C 18.1667,13.5 27.8333,13.5 37.5,13.5C 37.5,19.5 37.5,25.5 37.5,31.5C 27.8333,31.5 18.1667,31.5 8.5,31.5C 8.5,25.5 8.5,19.5 8.5,13.5 Z"/></g>
</svg>
